<?xml version="1.0" encoding="UTF-8"?>
<svg id="Layer_2" data-name="Layer 2" xmlns="http://www.w3.org/2000/svg" viewBox="0 0 160 160">
  <defs>
    <style>
      .cls-1 {
        fill: #29abe2;
      }
    </style>
  </defs>
  <g id="Layer_1-2" data-name="Layer 1">
    <g>
      <g id="Artwork_272" data-name="Artwork 272">
        <g>
          <path d="M17.53,159.75h-6.5l-4.21-4.07c-.71-.68-1.27-1.23-1.66-1.62-.39-.4-.71-.72-.92-.97,0,.36.04.72.04,1.12,0,.36.04.76.04,1.12v4.43H0v-15.5h4.31v3.6c0,.47,0,.94-.04,1.41,0,.47-.04.9-.07,1.3.28-.29.6-.61,1.02-1.04.39-.4.92-.9,1.55-1.48l3.99-3.78h6.22l-5.3,4.43c-.46.4-.85.72-1.2,1.01-.35.29-.67.54-.95.76-.28.22-.53.4-.74.58-.21.18-.46.32-.67.47.39.32.88.68,1.45,1.15.57.47,1.31,1.12,2.19,1.91l5.76,5.19Z"/>
          <path d="M38.66,159.75h-5.76l-3.11-4.11h-6.61v4.11h-4.28v-7.93h12.08c.67,0,1.24-.14,1.7-.47.46-.32.67-.72.67-1.26,0-.61-.21-1.05-.64-1.37-.42-.29-.99-.47-1.73-.47h-12.08l2.79-4.04h8.94c.78,0,1.59.07,2.44.25.85.14,1.63.47,2.3.86.71.43,1.27.97,1.7,1.69.46.72.67,1.62.67,2.74,0,.61-.07,1.19-.25,1.73-.18.54-.39,1.01-.71,1.44-.32.43-.71.79-1.13,1.12-.46.29-.95.5-1.52.65.25.22.49.47.78.76.28.32.67.72,1.17,1.26l2.58,3.03Z"/>
          <path d="M58.2,144.25l-8.23,10.38v5.12h-4.31v-5.15l-8.48-10.34h5.51l3.32,4.29c.11.14.25.32.42.54.18.22.35.47.57.72.18.25.39.47.53.68.18.22.28.36.35.47.14-.22.35-.5.6-.86.25-.36.64-.9,1.13-1.59l3.14-4.29,5.44.04Z"/>
          <path d="M76.11,150.05c0,.86-.14,1.66-.46,2.34-.32.68-.74,1.3-1.34,1.8-.6.5-1.31.86-2.16,1.15-.85.29-1.8.43-2.9.43h-7.28v3.96h-4.28v-7.93h11.98c.67,0,1.17-.14,1.55-.47.39-.32.57-.76.57-1.3s-.18-.97-.57-1.3c-.35-.32-.88-.47-1.55-.47h-11.98l2.86-4.04h8.73c1.1,0,2.05.14,2.9.43.85.29,1.55.69,2.16,1.19.57.5,1.02,1.12,1.34,1.84.28.68.42,1.48.42,2.34"/>
          <polygon points="95.55 144.25 92.76 148.29 87.81 148.29 87.81 159.75 83.5 159.75 83.5 148.29 76.96 148.29 79.79 144.25 95.55 144.25"/>
          <path d="M97.56,159.75l2.58-3.96h4.81c.46,0,.85,0,1.17.04-.18-.29-.42-.61-.67-1.04-.25-.43-.49-.83-.74-1.19l-2.51-4.11-6.5,10.27h-5.09l8.9-14.02c.28-.43.67-.86,1.1-1.19.46-.36.99-.54,1.7-.54.64,0,1.2.18,1.63.5.42.32.81.76,1.1,1.23l8.69,14.02h-16.15Z"/>
          <path d="M131.94,152.97c0,4.68-2.9,7.03-8.66,7.03-1.66,0-3.11-.14-4.31-.43-1.2-.29-2.19-.72-2.97-1.33-.78-.58-1.34-1.3-1.73-2.2-.35-.86-.57-1.91-.57-3.06v-8.72h4.28v8.72c0,.58.07,1.04.21,1.44.14.4.39.69.78.94s.92.4,1.63.5c.71.11,1.59.14,2.69.14.85,0,1.52-.04,2.08-.14.57-.11.99-.29,1.34-.54.32-.25.57-.58.71-.94.14-.4.21-.86.21-1.41v-8.72h4.31v8.72Z"/>
          <path d="M154.1,159.75h-5.76l-3.11-4.11h-6.61v4.11h-4.31v-7.93h12.08c.67,0,1.24-.14,1.7-.47.46-.32.67-.72.67-1.26,0-.61-.21-1.05-.64-1.37-.42-.29-.99-.47-1.73-.47h-12.08l2.79-4.04h8.94c.78,0,1.59.07,2.44.25.85.14,1.63.47,2.3.86.71.43,1.27.97,1.7,1.69.46.72.67,1.62.67,2.74,0,.61-.07,1.19-.25,1.73-.18.54-.39,1.01-.71,1.44-.32.43-.71.79-1.13,1.12-.46.29-.95.5-1.52.65.25.22.49.47.78.76.28.32.67.72,1.17,1.26l2.61,3.03Z"/>
          <rect x="155.69" y="144.25" width="4.31" height="15.5"/>
        </g>
      </g>
      <g id="Artwork_270" data-name="Artwork 270">
        <g>
          <g>
            <path d="M38.03,54.97c5.18,6.18,30.03,20.81,37.54,25.03,1.28.75,2.1,2.19,2.1,3.77v46.22l-15.54-9.8v-26.92c0-1.81-.9-3.54-2.4-4.45l-21.62-13.05-.08-20.81Z"/>
            <path d="M121.97,54.97c-5.18,6.18-30.03,20.81-37.54,25.03-1.28.75-2.1,2.19-2.1,3.77v46.22l15.54-9.8v-26.92c0-1.81.9-3.54,2.4-4.45l21.62-13.05.08-20.81Z"/>
          </g>
          <path class="cls-1" d="M122.94.08c.53,8.37-.68,16.29-4.35,23.83-4.5,9.2-11.19,15.99-19.67,20.89-5.93,3.47-16.14,6.18-18.92,6.18s-12.99-2.79-18.92-6.26c-8.48-4.9-15.17-11.69-19.67-20.89-3.68-7.54-4.88-15.46-4.35-23.83-9.91,18.25-10.29,36.42,4.81,51.28,12.09,11.24,38.07,24.66,38.07,24.73,0,0,25.98-13.42,38.07-24.73,15.32-14.78,14.87-32.95,4.96-51.2Z"/>
        </g>
      </g>
    </g>
  </g>
</svg>