<?xml version="1.0" encoding="UTF-8"?>
<svg id="Layer_2" data-name="Layer 2" xmlns="http://www.w3.org/2000/svg" viewBox="0 0 100 10">
  <defs>
    <style>
      .cls-1 {
        fill: #010101;
      }
    </style>
  </defs>
  <g id="Layer_1-2" data-name="Layer 1">
    <g id="Artwork_272" data-name="Artwork 272">
      <g>
        <path class="cls-1" d="M10.95,9.84h-4.06l-2.63-2.54c-.44-.43-.79-.77-1.04-1.01-.24-.25-.44-.45-.57-.61,0,.23.02.45.02.7,0,.23.02.47.02.7v2.77H0V.16h2.69v2.25c0,.29,0,.59-.02.88,0,.29-.02.56-.04.81.18-.18.38-.38.64-.65.24-.25.57-.56.97-.92L6.74.16h3.89l-3.31,2.77c-.29.25-.53.45-.75.63-.22.18-.42.34-.6.47-.18.14-.33.25-.46.36-.13.11-.29.2-.42.29.24.2.55.43.91.72.35.29.82.7,1.37,1.19l3.6,3.24Z"/>
        <path class="cls-1" d="M24.16,9.84h-3.6l-1.94-2.57h-4.13v2.57h-2.67v-4.95h7.55c.42,0,.77-.09,1.06-.29.29-.2.42-.45.42-.79,0-.38-.13-.65-.4-.86-.27-.18-.62-.29-1.08-.29h-7.55L13.56.14h5.59c.49,0,.99.05,1.52.16.53.09,1.02.29,1.44.54.44.27.79.61,1.06,1.06.29.45.42,1.01.42,1.71,0,.38-.04.74-.15,1.08-.11.34-.24.63-.44.9-.2.27-.44.5-.71.7-.29.18-.6.32-.95.41.15.14.31.29.49.47.18.2.42.45.73.79l1.61,1.89Z"/>
        <path class="cls-1" d="M36.37.16l-5.15,6.49v3.2h-2.69v-3.22L23.23.16h3.45l2.08,2.68c.07.09.15.2.27.34.11.14.22.29.35.45.11.16.24.29.33.43.11.14.18.23.22.29.09-.14.22-.32.38-.54.15-.23.4-.56.71-.99l1.97-2.68,3.4.02Z"/>
        <path class="cls-1" d="M47.57,3.78c0,.54-.09,1.04-.29,1.46-.2.43-.46.81-.84,1.13-.38.32-.82.54-1.35.72-.53.18-1.13.27-1.81.27h-4.55v2.48h-2.67v-4.95h7.49c.42,0,.73-.09.97-.29.24-.2.35-.47.35-.81s-.11-.61-.35-.81c-.22-.2-.55-.29-.97-.29h-7.49l1.79-2.52h5.46c.68,0,1.28.09,1.81.27.53.18.97.43,1.35.74.35.32.64.7.84,1.15.18.43.27.92.27,1.46"/>
        <polygon class="cls-1" points="59.72 .16 57.97 2.68 54.88 2.68 54.88 9.84 52.19 9.84 52.19 2.68 48.1 2.68 49.87 .16 59.72 .16"/>
        <path class="cls-1" d="M60.98,9.84l1.61-2.48h3c.29,0,.53,0,.73.02-.11-.18-.27-.38-.42-.65-.15-.27-.31-.52-.46-.74l-1.57-2.57-4.06,6.42h-3.18l5.57-8.76c.18-.27.42-.54.68-.74.29-.23.62-.34,1.06-.34.4,0,.75.11,1.02.32.26.2.51.47.68.77l5.43,8.76h-10.09Z"/>
        <path class="cls-1" d="M82.46,5.61c0,2.93-1.81,4.39-5.41,4.39-1.04,0-1.94-.09-2.69-.27-.75-.18-1.37-.45-1.86-.83-.49-.36-.84-.81-1.08-1.37-.22-.54-.35-1.19-.35-1.91V.16h2.67v5.45c0,.36.04.65.13.9.09.25.24.43.49.59s.57.25,1.02.32c.44.07.99.09,1.68.09.53,0,.95-.02,1.3-.09.35-.07.62-.18.84-.34.2-.16.35-.36.44-.59.09-.25.13-.54.13-.88V.16h2.69v5.45Z"/>
        <path class="cls-1" d="M96.31,9.84h-3.6l-1.94-2.57h-4.13v2.57h-2.69v-4.95h7.55c.42,0,.77-.09,1.06-.29.29-.2.42-.45.42-.79,0-.38-.13-.65-.4-.86-.26-.18-.62-.29-1.08-.29h-7.55l1.74-2.52h5.59c.49,0,.99.05,1.52.16.53.09,1.02.29,1.44.54.44.27.79.61,1.06,1.06.29.45.42,1.01.42,1.71,0,.38-.04.74-.15,1.08-.11.34-.24.63-.44.9-.2.27-.44.5-.71.7-.29.18-.6.32-.95.41.15.14.31.29.49.47.18.2.42.45.73.79l1.63,1.89Z"/>
        <rect class="cls-1" x="97.31" y=".16" width="2.69" height="9.68"/>
      </g>
    </g>
  </g>
</svg>